<svg width="154" height="180" viewBox="0 0 154 180" fill="none" xmlns="http://www.w3.org/2000/svg"><path d="M99.6 69.8c-3.8 2-6 6.3-7.5 10.4l.2-.3c-.7 1.6-1.9 3.1-3.3 4.2-2.1 1.7-4.7 2.5-7.4 2.4a9.6 9.6 0 01-6.8-3.6c-.8-1-1.5-2.3-2-3.5L70.5 72c-3.2-.3-5 0-8.8 0l-.2-.2c2.7-3 5.2-6.2 7.6-9.4l-.1-.2a22.4 22.4 0 016-19.4l.2.2c.3 1.8 1.3 3.5 2.5 5a23.9 23.9 0 0020.3 8.5 6.4 6.4 0 016.4-1.4c2.3.7 3.1 2.7 3.6 5a6 6 0 01-.4 4.6c-.8 1.5-1 2.5-2.5 3.3-1.5.7-3.1 1.2-4.8 1.6" fill="#FFB59B"/><path d="M99.2 69.2c-4 2.4-6.2 6.5-7.7 10.8-.3.7.9 1.2 1.2.5l.2-.3-1.2-.7c-3 6.1-11.6 9-16.3 3-2.3-3-3.3-7-4.4-10.6a.7.7 0 00-.7-.5H66c-1 0-3.4.4-4.1 0v1a171.5 171.5 0 007.9-10l-.1-.3c-.6-1-.4-3.4-.4-4.7.3-5.3 2.5-10.2 6.1-14h-.8c.2.2.5 1.7.6 2a23 23 0 006 7c3.5 2.6 7.5 4.2 11.7 4.8 1.5.2 3.9.6 5.3 0 1-.3 1.6-1.1 2.6-1.4a5.4 5.4 0 014.3.5c2.5 1.6 3 5.7 1.9 8.1-.5 1-1 2-1.8 2.7-1.3 1.1-3.5 1.5-5 2a.7.7 0 00.3 1.3c2.2-.6 5.1-1.2 6.5-3.1a9 9 0 001.9-6c-.5-4.4-3.3-8-8.1-7-1.1.3-1.8.9-2.8 1.3-.7.4-.5.5-1.4.4h-2.1a23.3 23.3 0 01-15.7-7.7A12.2 12.2 0 0176 44c-.3-.8-.2-1.2-.8-1.6a.7.7 0 00-.9.1A23.5 23.5 0 0068 60.5c0 .8.4 1.9.2 2.3-.3.5-1.3 1.5-1.8 2a250.8 250.8 0 01-5.5 7 .7.7 0 00.3.7c1 .6 2.8.3 3.8.2l5.5.1-.7-.5c1.5 4.7 2.8 10.7 7.2 13.4 5.9 3.6 13.2.4 16-5.5.4-.8-.7-1.4-1.1-.7l-.2.4 1.2.5c1.5-4 3.4-7.8 7.2-10a.7.7 0 00.2-1 .7.7 0 00-1-.2z" fill="#FFB59B"/><path d="M87 86.2c3.6.2 7 1.6 10.2 3l7.4 3.2.6.3c-1-7.7-2-20.3-3.2-27.9" fill="#FFB59B"/><path d="M87 86.9c3.7.3 7 1.7 10.3 3.1l7.5 3.3c.5.2 1.1 0 1-.6-1-9.3-1.8-18.7-3.2-28 0-1-1.4-.6-1.3.3 1.4 9.2 2.1 18.5 3.2 27.7l1-.5c-3-1.5-6-2.7-9-4a30 30 0 00-9.4-2.7c-.9 0-.9 1.3 0 1.4z" fill="#FFB59B"/><path d="M86.6 87.5c7.6-3.1 11.9-8.9 12.2-17.1 0-.9-1.3-.9-1.3 0a16.7 16.7 0 01-11.3 15.7c-.8.4-.4 1.7.4 1.4zM73.6 44.2c1 4.3 4.4 8.2 8.2 10.5A32.7 32.7 0 0094.2 58c.4-.4 4.2-3.3 4.8-3.4 1.3-.5 2.6-.7 4-.7 1.3 0 3.7 1.7 4.5 2.8 0 0-.6-11.8-4.1-16-3.5-4.2-10.6-4.6-13.8-4.6-5.3 0-12 3.6-16 7.7" fill="#182B84"/><path d="M72.9 44.4c2.4 8.4 10 12.7 18.2 13.9.8.1 2 .5 3 .3.7-.1 1.1-.7 1.7-1 1.2-1 2.4-2 3.8-2.6 2.9-1 5.5-.3 7.4 2a.7.7 0 001.2-.4c-.4-6.5-1.1-15.6-7.5-19-9.4-5-20.4-1.3-27.6 5.7-.7.6.3 1.5 1 1 6.7-6.7 17.6-10.6 26.4-5.3 5.4 3.3 6 11.9 6.3 17.6l1.2-.5a7.6 7.6 0 00-9.3-2.3c-1 .6-2 1.2-3 2L94.3 57s-.7.4-.2.3c.2 0 .1 0 0 0-3 .1-6.6-1-9.3-2A17.5 17.5 0 0174.2 44a.7.7 0 00-1.3.4z" fill="#182B84"/><path d="M123.5 105.1c-1-3.4-4.1-5.4-7.2-7.3a88.7 88.7 0 00-16.5-7.2c-3.2-1.1-7.8-3.3-11.1-3.8-4-.6-10.8.2-14.7 1-8.4 1.6-12.2 7.8-16 15.5-1.9 3.7-2 25.4 0 33.9 1.4 6 7.5 16 9.1 18 3.5 3.7 10.1 2.4 15.2 3 5 .7 9.2-3 14.2-4 6-1.5 11.3 2.6 16.4-1 5-3.5 11.5-.8 13-6.9.4-1.9-1.8-11.6-1.6-13.6.6-5.6 2.9-13.3 2.4-18.9-.2-2.9-2.2-5.7-3.2-8.7z" fill="#A0B2E2"/><path d="M124 105c-1.4-4.1-5.2-6.4-8.9-8.5a97.2 97.2 0 00-14.8-6.3c-4.2-1.5-8.3-3.6-12.7-4-4.3-.4-8.7.1-13 .9-8.5 1.5-13.1 7.9-16.8 15.3-.9 2-1.1 4-1.3 6.1-.4 3.7-.5 7.4-.5 11.1 0 6.8 0 14.3 2.4 20.7 1.5 3.7 3.2 7.3 5.3 10.7 1.5 2.4 3 5 5.6 6.3 3.8 1.7 8.3 1 12.4 1.4 4.8.4 8.4-1.9 12.8-3.5 2.8-1 5.5-1 8.3-.5 2.1.3 4.2.8 6.4.5 2.2-.3 3.6-1.5 5.5-2.4 1.9-.9 4-1.1 5.9-1.5 3-.7 5.6-2.3 5.8-5.7.2-3.6-1-7.4-1.4-11-.6-4.6 1.2-9.5 1.9-14.1.3-2.4.7-5 .3-7.4-.5-2.9-2.2-5.4-3.2-8.1-.2-.6-1.2-.4-1 .3.8 2.2 2 4.2 2.8 6.5.7 2.2.5 4.7.3 7-.5 4.5-1.8 8.9-2.2 13.3-.3 2.4.4 5 .8 7.3.4 2.7 1.6 6.6-.4 9-2.1 2.5-6.6 2-9.4 3.2-1.8.7-3.3 2.1-5.4 2.5-2.4.5-5-.3-7.4-.6a20 20 0 00-11.3 2.2c-2.1 1-4.3 2-6.7 2-2 .2-4.2-.2-6.3-.2-3.9-.1-8.3-.1-10.8-3.5a55.8 55.8 0 01-8.7-18 108 108 0 01-.6-29c.3-2.8 1.4-4.9 2.7-7.3 2-3.4 4.3-6.8 7.6-9 3.8-2.6 8.6-3 13-3.4 2.4-.3 4.7-.3 7.1 0 2.5.2 4.8 1.2 7.1 2 5 2 10.2 3.7 15 5.9 4.7 2 11 5 12.9 10 .1.7 1.1.4 1-.2z" fill="#A0B2E2"/><path d="M101 59l-2 4.1a.7.7 0 00.6 1c1.6 0 3.1-.3 4.6-.7.9-.3.5-1.6-.3-1.4-1.4.4-2.8.7-4.2.8l.6 1 1.8-4c.4-.8-.8-1.5-1.2-.7zM73 64.2c.7-2 4.3-3.8 6-2.1.7.6 1.6-.4 1-1-2.5-2.4-7.3-.3-8.3 2.7-.3.9 1 1.2 1.3.4z" fill="#182B84"/><path d="M77.5 60.3c-3.7 1-2.8 7.1 1.1 6.7 2-.2 2.4-2 2.4-3.6a3 3 0 00-3.2-3c-.9 0-.9 1.3 0 1.3 1.2 0 1.8.7 1.8 1.8 0 1 0 2.1-1.3 2.2-2.2 0-2.5-3.6-.4-4.1a.7.7 0 00-.4-1.3zM71.4 60.4c2.1-1.9 4.1-3 7-2.3a.7.7 0 00.4-1.3c-3.4-.9-5.8.4-8.4 2.6-.7.6.3 1.5 1 1zM72.4 79.5c2-.7 3.6-2 4.7-3.9a.7.7 0 00-1.2-.7 7.7 7.7 0 01-3.8 3.3c-.9.3-.5 1.6.3 1.3zM98.3 71c1.8-.1 3.5-.4 5.2-1 .9-.2.5-1.5-.3-1.3-1.6.5-3.2.8-4.9 1-.9 0-.9 1.4 0 1.3z" fill="#182B84"/><path d="M126 158.5l.1-.2h-.1v.2z" fill="#F5855B"/><path d="M126.6 158.9l.1-.2a.7.7 0 00-.6-1h-.1a.7.7 0 00-.7.6v.2a.7.7 0 00.7.7.7.7 0 00.7-.7v-.2l-.7.7h.1l-.6-1-.1.2a.7.7 0 00.2 1 .7.7 0 001-.3z" fill="#F5855B"/><path d="M131.4 17.1l-.2-.2c-36.5.3-73 2.3-109.3 6.3l-.1.6-1.1 138.4v.2c39.5 0 71-2.4 109.7-4 1.9-46.1 3-95.3 1-141.3zm-11.2 95.5c-.5 11.8.2 17.9-.7 34.4l-.4.3c-27.5 1.4-58.7 5-86.2 3.4 0-6-.3-10.3-.4-16.2-.8-31.9.5-68.7 1.8-100.7l4.4-.7c30.7-4 48.5-4.7 80.8-4.7.5 13.7.7 15.2.8 23.4.4 20.3.8 40.5-.1 60.8z" fill="#F5855B"/><path d="M131.7 16.5c-1-.7-3-.2-4-.2a1125 1125 0 00-105.8 6.1.7.7 0 00-.7.7c-.4 4.1-.1 8.4-.2 12.5v13.6L20.6 77l-.5 55v15.1L20 155v3.6c0 1 .1 2.6-.1 3.7a.7.7 0 00.6.9c28.3 0 56.6-1.5 84.8-3a3785.4 3785.4 0 0125.5-1.3c.2-.1.2-.3.2-.5 1.5-36.7 2.5-73.4 1.9-110.1-.2-10.4-.5-20.7-1-31.1 0-.9-1.4-.9-1.3 0a1511 1511 0 01.1 110.1l-1 31.1.6-.7c-28.1 1.2-56.2 3-84.4 3.8-8.4.2-16.9.3-25.4.3l.7.9c.4-1.4 0-3.2.1-4.5v-7.3l.2-13.7.2-27.7.5-55.6v-16c.1-4.8-.2-9.8.2-14.6l-.6.6a1116.6 1116.6 0 01103-6.1h3.6c.6 0 2.1-.3 2.6 0 .7.5 1.4-.7.6-1.2z" fill="#F5855B"/><path d="M119.5 112.6c-.2 5.8-.2 11.6-.2 17.4 0 3.2 0 6.4-.2 9.7 0 2 .2 4.1-.2 6-.1.7.2.6-.3 1h-1.1l-3.7.2c-17.3 1-34.6 2.6-51.9 3.2-9.7.4-19.4.5-29-.1l.7.7c-.2-15-.8-29.9-.7-44.8a1738.3 1738.3 0 012-72l-.5.6c28.1-4.8 56.7-5.4 85.1-5.4l-.6-.7c.8 28 1.8 56.1.6 84.2 0 .9 1.3.9 1.4 0 1.2-28 .2-56.1-.7-84.2a.7.7 0 00-.7-.7 507.6 507.6 0 00-85.8 5.8l-.1.4c-1.3 30.5-2.4 61.2-2 91.8.1 8.3.5 16.6.6 25a.7.7 0 00.7.7c18.2 1 36.4 0 54.6-1.3l26.7-1.9c1.5 0 3.9.3 5.2-.3 1.2-.5.9-1.5 1-2.6l.3-12c0-7 0-13.8.2-20.7 0-.9-1.4-.9-1.4 0z" fill="#F5855B"/><path d="M33.5 34.6c0 38.4-1 76.8-1 115.2a.7.7 0 001.4 0c0-38.4 1-76.8 1-115.2a.7.7 0 00-1.4 0z" fill="#182B84"/><path d="M34.1 34.8a848.8 848.8 0 0185.3-5.2.7.7 0 00-.5-1.2c-28.3 0-56.6 2.2-84.8 5-.8.1-.8 1.5 0 1.4zM108.7 48l9-6.1 4.5-3.2c2-1 3.9-2 6-2.6 2.6-1 5.4-1.5 8.1-1.2 2.8.4 5.5 1.8 6.9 4.3.5 1 .8 2.2.3 3.3-.3.6-.9 1.2-1.5 1.5a31.2 31.2 0 01-7.8 3.4c1.4-.2 3 0 4.4.4 1.4.4 2.6 1.3 3.5 2.6.4.5.6 1.2.6 1.8 0 .6-.3 1.2-.6 1.6-1 2-3 3.2-5 3.8a28 28 0 01-11.7-.3c-4.5-1.2-8.6-4-13.2-4.3-1.4-.1-2.8 0-4.1-.4-.2 0-.4-.1-.4-.3" fill="#182B84"/><path d="M109 48.5c6.5-4.3 12.5-9.9 20-12.2 4.2-1.3 9.3-1.7 12.5 1.6.7.6 1.5 1.7 1.7 2.7.3 2.3-2 3.4-3.5 4.1-1.8.9-3.7 1.6-5.7 2.2-.5.2-.4 1 .2 1 2-.1 4 0 5.8 1.1 1.2.8 2.2 2.2 2 3.7 0 1.1-1.4 2.4-2.3 3-3 2.2-7 2-10.6 1.7-3.6-.4-6.8-1.7-10.2-3a27 27 0 00-5-1.7c-1-.2-5.4 0-5.7-.6-.3-.6-1.2-.1-.9.5.6 1.3 3.8.8 4.9 1 2.8.2 5.3 1.3 7.9 2.3a29 29 0 0015.5 2.5c3-.5 7.8-2.7 7.5-6.5-.3-4.2-5.7-5.2-9-5l.2 1c3-1 9.7-2.5 10-6.4.2-4-4.5-6.6-7.8-7-10.7-1.6-20 7.8-28 13.1-.6.4 0 1.3.5 1v-.1z" fill="#182B84"/><path d="M108 48.3c.4 2 .2 2.6.4 4.6l-.5-4.6z" fill="#5755D0"/><path d="M107.3 48.5c.3 1.5.2 3 .4 4.4.1.9 1.5.9 1.4 0-.2-1.6-.1-3.2-.5-4.8-.2-.8-1.5-.5-1.3.4z" fill="#5755D0"/><path d="M60.1 48c-.8-3 .5-6.3-1.2-8.8-.2-.3-3.9-.5-4.3-.5-3.4.2-4.3.6-7.6 1.4-1.4.3-1 .4-3.2 1.4-1.4.5-3.5 2.2-3.2 3.6l2.7 14.2c-1.4 2.3-2.8 5-4.1 6.7l7.8 5.7 4.1-7.3 2.8-3.7c2-.7 3.7-2 5-3.7.5-.6 1-2.7 1.4-3.6 1-2.3 3.2-4.2 2.7-6-.4-1.8-2.2-1.5-3.6-1.4" fill="#FFB59B"/><path d="M60.8 47.7c-.5-2.3.7-7.2-1.4-9-.9-.8-3-.6-4-.6-4.4-.1-8.6 1-12.4 3-1.6.9-3.2 2.3-3.1 4.2.2 2.7 1 5.5 1.5 8 .4 1.7 1.3 4 1.2 5.8-.1.8-1 1.6-1.4 2.5l-2.6 4.1a.7.7 0 00.2 1 503.3 503.3 0 018.2 5.7l.4-.2c.8-.8 1.2-2 1.7-3a51 51 0 014.8-7.5c.8-.9 2.1-1.2 3.2-2a8 8 0 003-4c.8-2.2 2.2-3.8 3.1-5.9.6-1.2.8-2.6-.1-3.7-1-1-2.5-.8-3.8-.7-.9 0-.9 1.4 0 1.3.6 0 1.7-.3 2.2 0 1.6.8.5 2.5 0 3.5-.9 1.3-1.8 2.4-2.3 3.9-.7 2-1.4 3.6-3.4 4.9-.8.5-1.9.8-2.6 1.4-1.2 1.1-2.4 3-3.2 4.4l-2.2 4c-.4.7-.8 1.8-1.3 2.4h.8l-7.8-5.7.3 1L42 63c.5-1 1.7-2.3 1.9-3.3.1-.7-.1-1.4-.3-2.1l-1-5.7c-.5-2.2-1.7-5.2-1-7.3.5-2 3.2-3 5-3.7 2.2-.7 4.5-1.2 6.8-1.4 1.2 0 3.8-.4 4.8.2 1.2.6 1 3.3 1 4.5-.1 1.3 0 2.6.2 4 .2.8 1.5.4 1.3-.5z" fill="#FFB59B"/><path d="M46.3 45.3c2.8.5 5.7.1 8.3-1 .8-.3.4-1.6-.4-1.3-2.4 1-5 1.4-7.5 1-.9-.1-1.2 1.2-.4 1.3z" fill="#182B84"/><path d="M49.1 44.8c-1.5 2.1-1.5 5.3 1.5 5.9 1.8.3 3.8 0 5.5-.5 1.8-.5 3.7-1.4 4.7-3.1 1.4-2.5.4-5.5-.8-7.8-.4-.8-1.6-.1-1.2.7 1 1.9 2 4.4.8 6.4-.7 1.2-2 2-3.4 2.3-1 .4-2.1.6-3.2.7h-2.2c-1.9-.7-1.4-2.6-.4-4 .5-.7-.7-1.3-1.2-.6z" fill="#182B84"/><path d="M53.3 42.2c.3 1 .8 2.2 1.4 3.1.4.8 1.6.1 1.2-.6-.6-1-1-1.9-1.2-2.9a.7.7 0 00-1.4.4zM52 53.2c1.5-.9 2.9-1.9 4.2-3 .7-.6-.3-1.5-1-1-1.2 1-2.5 2-3.9 2.8-.8.5 0 1.6.7 1.2z" fill="#182B84"/><path d="M75 121.6c-12 2.3-15.4.5-29.4.5-7 0-13.7.3-20.6-1a37.8 37.8 0 01-12.9-5.5c-6-5.4-3.2-16 1.9-22.9 8.2-11 13.3-21 23.6-33.3l.7-.2c3 2.5 11.4 7 11.4 7-3.8 9.9-7.3 13.3-17 31.1 0 0 25.2-6.3 43.2-10 3.6-.8 10.7.6 13.1 3.4 2.2 2.7 2.3 6.5 2 10a23 23 0 01-2.3 9.4c-1 1.6-2 3-3.3 4.4-2 2.3-4.2 4.4-6.4 6.5" fill="#A0B2E2"/><path d="M74.8 121.1c-5.3 1-10.7 1.3-16.1 1-6.9-.4-13.6-.5-20.5-.5a51 51 0 01-19.5-3c-2.5-1-5.3-2.1-7-4.2a12 12 0 01-2.3-9c.7-6.8 4.8-12 8.6-17.3 3.7-5.4 7.2-11.2 11-16.6 2.3-3.3 4.7-6.5 7.3-9.6.5-.6 1.1-1.8 1.8-2 .5-.3-.1-.1.4 0 1 .4 2 1.4 2.8 2 2 1.3 4 2.5 6.1 3.6.5.3 1.4.6 1.8 1 .4.5 0-.5-.1 0l-.7 1.6c-1.8 4-3.8 7.7-6 11.4a532.3 532.3 0 00-10.1 17.9.5.5 0 00.6.4A1446.8 1446.8 0 0167 89.7c3.2-.7 6.5-1.7 9.8-2a18 18 0 018.2 1.1c3.9 1.5 5.5 4.6 5.6 8.7.1 4.2-.4 9-2.6 12.7-2.3 4-6.1 7.3-9.4 10.5-.5.4.2 1.1.7.7 3-3 6.3-6 8.8-9.4 2.2-3 3-6.6 3.4-10.2.3-3.4.4-7.2-1.3-10.2-1.3-2.3-3.6-3.4-6-4.2-6.4-2-12.6.2-18.8 1.6a1216.4 1216.4 0 00-32.8 7.8l.6.8c5.6-10.4 12.7-20.3 17-31.3a.5.5 0 00-.2-.6c-3.9-2-8-4.2-11.3-7a.5.5 0 00-.7 0c-1.7.8-2.9 3-4 4.4l-4.5 6c-3 4-5.6 8.2-8.4 12.4-2.7 4.1-5.6 8-8.3 12a26.6 26.6 0 00-4.4 11.2c-.5 3.5 0 7.1 2.1 10 2 2.5 5.2 3.8 8.2 5 9.4 3.7 19.5 2.7 29.5 2.9 4.5 0 9 .5 13.6.6 4.5.1 9-.3 13.3-1.1.6-.1.4-1.1-.3-1z" fill="#A0B2E2"/><path d="M57 123.7a98.5 98.5 0 0023.1-4.5.7.7 0 00-.8-1c-7.3 2-14.6 3.8-22.2 4-1 .1-1 1.5 0 1.5zM20.8 101.7C25 99.8 29 98 33.4 96.6c.8-.3.5-1.6-.4-1.3-4.4 1.5-8.6 3.3-12.9 5.2-.8.3-.1 1.5.7 1.2zM38 59.3c4.2 2 8.2 4.3 12 6.8.8.4 1.5-.7.8-1.2a152 152 0 00-12-6.8c-.9-.4-1.6.8-.8 1.2zM31.6 66.7a154.4 154.4 0 0014.1 9.1.7.7 0 00.2-1.2c-4.7-2.8-9.2-5.8-13.6-9.1-.7-.5-1.4.7-.7 1.2zM89.1 86.6c3.7.2 7.7 2.3 11 3.6a293 293 0 0114 5.9c.7.3 1.4-.8.6-1.2l-14.1-6c-3.6-1.4-7.6-3.5-11.4-3.7-1 0-1 1.3 0 1.4zM21 23.3l12.2 11.3c.7.6 1.7-.4 1-1L22.1 22.4c-.7-.6-1.6.3-1 1zM119.4 29.6c3.7-4 7.4-8.1 11.4-11.8.6-.6-.3-1.6-1-1-4 3.7-7.6 7.8-11.3 11.8-.6.6.3 1.6 1 1zM32.7 149.5a6219.5 6219.5 0 00-12.5 12.9.7.7 0 001.1.5A5725.7 5725.7 0 0034 150a.7.7 0 00-1.2-.5zM118.6 147.6c4.2 3.2 7.5 7.5 11.3 11.1.6.6 1.6-.3 1-1-4-3.7-7.3-8-11.6-11.3-.7-.5-1.4.7-.7 1.2z" fill="#182B84"/><path d="M99.7 101.7c-1 8.5-.8 15.2-3.5 19.8-1.3 2.2-2.7 4.8-9.7 6.1-3.6.7-8.6 1.1-13.2 1.8 4.9.3 9.7 1 14.5 1.8 2.7.5 7.1 1.5 9.1 6.9.8 2 1.5 4.2 1.9 6.4 1.1 5.9 1.3 5 2.3 11 .4-6.4.7-9.6.9-11a24 24 0 013.6-11c2.2-3.3 12-4.1 20.7-6.4-6.3-.4-14.5-.1-20.2-4.6-4.7-3.6-6.2-16.5-6.4-20.8" fill="#FDC87A"/><path d="M99 101.7c-.7 6.9-.2 15-4.3 21-2 2.6-5.2 3.6-8.4 4.2-4.3.9-8.8 1.2-13.1 1.8-.9.1-.6 1.3.1 1.4 4 .3 8 .8 12 1.4 3.2.5 6.4 1 8.8 3.3 3 3 3.5 7.8 4.4 11.8.7 3 1.4 6 1.9 9 .1.9 1.3.6 1.4-.1.4-6.6.3-14.1 3.5-20.1 1.7-3.1 4.8-4 8-4.7 4.4-1 8.8-1.8 13.2-3a.7.7 0 00-.2-1.3c-7-.4-17.7.1-21.8-7-3-5.1-3.8-11.9-4.1-17.7 0-.9-1.4-.9-1.4 0 .4 6.3 1.2 13.9 4.8 19.2 4.6 7 15.2 6.5 22.5 6.9l-.2-1.4c-4.8 1.2-9.6 2-14.4 3.3-3 .8-5.7 1.7-7.3 4.5-3.6 6.3-3.5 14.2-4 21.3l1.3-.2c-.5-3.6-1.4-7-2.2-10.6-.8-4-1.7-8.5-4.9-11.3-2.3-2-5.2-2.6-8.2-3.1a156 156 0 00-13-1.6l.1 1.3c5-.7 10-.9 14.8-2 2.8-.8 5.5-2 7.3-4.4 4.6-6.1 4-14.7 4.8-21.9 0-.9-1.3-.9-1.4 0z" fill="#FDC87A"/><path d="M80.5 90c-.3 4-.3 7-1.6 9.1-.6 1-1.2 2.3-4.5 2.9l-6.1.8 6.7.4c2.7.2 3.8 1.4 4.7 3.9.4 1 1.1 2.5 1.1 3.6.2 2.8.4 1.2.4 4v-3.4c0-2.4.5-4.2 2.1-6 2.2-2.8 5.4-2.6 9.3-3.5-3-.2-6.6.3-9.3-1.8-2.2-1.7-2.7-8-2.8-10" fill="#B8DDF0"/><path d="M79.9 90c-.3 3 0 7-2 9.5s-6.9 2.2-9.8 2.6c-.8.1-.5 1.3.2 1.4 3.1.2 8.4-.6 10.2 2.6 1.5 2.5 2 5.7 2 8.7h1.3c0-2.7-.2-5.4 1-7.8 2.2-3.7 6.3-3.7 10-4.6.7-.1.5-1.3-.2-1.3-3.6-.2-8.6.5-10.1-3.6a25 25 0 01-1.3-7.5c0-1-1.4-1-1.3 0 .1 3 .3 6.7 2 9.3 2 3.6 7.1 3 10.7 3.2l-.2-1.4c-4 1-7.9 1-10.3 4.7-1.9 2.7-1.6 5.8-1.6 9a.7.7 0 001.3 0c.1-3.4-.5-7.4-2.6-10.2-2.3-3-7.5-2.3-11-2.5l.3 1.4c3.3-.5 8.2-.2 10.4-3.2 2.2-2.8 2-7 2.3-10.4.1-.8-1.3-.8-1.3 0zM39.3 123.8c-.3 4-.4 7.1-1.6 9.2-.7 1-1.3 2.2-4.5 2.9l-6.2.8 6.8.4c2.6.2 3.7 1.4 4.7 3.9.4 1 1 2.5 1.1 3.6v4.5c0-2.8.3-1.4.3-3.9 0-2.4.6-4.2 2.1-6 2.3-2.8 5.5-2.6 9.3-3.6-2.9-.1-6.6.4-9.3-1.7-2.1-1.7-2.6-8-2.7-10" fill="#B8DDF0"/><path d="M38.6 123.8c-.2 3 0 7.1-2 9.6s-6.8 2.2-9.7 2.6c-.8.1-.6 1.3.1 1.4 3.2.2 8.5-.6 10.3 2.5 1.6 3 1.8 6 1.7 9.2h1.3c0-2.6 0-5.9 1.3-8.2 2.2-3.7 6.2-3.7 10-4.6.7-.1.5-1.3-.3-1.3-3.6-.2-8.5.5-10-3.6a25 25 0 01-1.3-7.6c0-.8-1.4-.8-1.4 0 .2 3 .4 6.7 2 9.4 2.1 3.6 7.2 3 10.7 3.2l-.1-1.4c-4 .9-8 1-10.4 4.6-1.8 2.7-1.8 6.4-1.8 9.5a.7.7 0 001.3 0c.1-3.7 0-7.6-2.3-10.6s-7.6-2.3-11-2.5l.2 1.4c3.3-.5 8.2-.2 10.5-3.2 2.2-2.8 2-7 2.3-10.4 0-.8-1.3-.8-1.4 0z" fill="#B8DDF0"/><path d="M54.6 73.4c-.2 2.4-.2 4.3-1 5.5-.4.6-.7 1.4-2.7 1.8l-3.7.4 4 .3c1.7.1 2.3.8 3 2.3.2.7.5 1.5.6 2.3v2.6c0-1.6.2-.8.2-2.3 0-1.3.4-2.6 1.3-3.7 1.3-1.6 3.2-1.5 5.6-2-1.8-.2-4 .2-5.6-1.1-1.4-1-1.6-4.9-1.7-6" fill="#FDC87A"/><path d="M54 73.4c-.2 1.7 0 3.9-1 5.3-1.2 1.7-4 1.5-5.8 1.8a.7.7 0 100 1.3c2 .2 5-.3 6 1.7 1 1.6 1 3.3 1 5.1h1.3c0-1.4 0-3.3.7-4.6 1.2-2.3 3.6-2.3 5.9-2.8.7-.2.5-1.3-.2-1.3-2.2-.1-5 .2-6-2.3-.3-1.3-.6-2.8-.6-4.2 0-.9-1.4-.9-1.4 0 .1 2 .2 4.4 1.4 6 1.5 2 4.4 1.8 6.6 1.8l-.2-1.3c-2.3.5-4.7.6-6.2 2.7-1.3 1.7-1.3 4-1.4 6 0 1 1.4 1 1.4 0 0-2.2 0-4.8-1.6-6.6-1.5-1.9-4.6-1.4-6.7-1.5v1.4c2.1-.3 5.1-.2 6.6-2 1.4-1.7 1.3-4.4 1.5-6.5 0-.9-1.3-.9-1.4 0z" fill="#FDC87A"/></svg>