<svg width="102" height="48" viewBox="0 0 102 48" fill="none" xmlns="http://www.w3.org/2000/svg">
<path d="M74.542 4L62.813 24.2745L74.6258 44.7165H82.3334H98.0001L74.542 4Z" fill="#404DB2"/>
<path d="M62.813 24.2747L51.084 44.7167L62.813 24.2747Z" fill="#3FE0E0"/>
<path d="M51.084 44.7167H74.6258L62.813 24.2747L51.084 44.7167Z" fill="#3FE0E0"/>
<path d="M27.5419 4.00073H27.4581L4 44.6335V44.7172H19.6667H27.6256L39.3547 24.4428L27.5419 4.00073Z" fill="#FF4B3C"/>
<path d="M39.7733 25.2808L50.9997 44.7174H51.0835L39.7733 25.2808Z" fill="#FAE621"/>
<path d="M39.3545 24.4429L27.6254 44.7173H50.9997L39.3545 24.4429Z" fill="#FFCD42"/>
<path d="M51.0835 4.00073L39.3545 24.4428L51.0835 44.7172L62.8126 24.2752L51.0835 4.00073Z" fill="#12D11C"/>
</svg>
